<svg xmlns="http://www.w3.org/2000/svg" viewBox="0 0 1036 1024" role="img" aria-label="TurkCAD renkli logo - bordo #9f1d35">
  <defs>
    <linearGradient id="tc-red" x1="0" y1="0" x2="1" y2="1">
      <stop offset="0" stop-color="#9f1d35"/>
      <stop offset="0.55" stop-color="#9f1d35"/>
      <stop offset="1" stop-color="#9f1d35"/>
    </linearGradient>
    <linearGradient id="tc-gray" x1="0" y1="0" x2="1" y2="1">
      <stop offset="0" stop-color="#4E5555"/>
      <stop offset="0.55" stop-color="#6F7574"/>
      <stop offset="1" stop-color="#909493"/>
    </linearGradient>
  </defs>
  <symbol id="turkcad-logo" viewBox="0 0 1036 1024">
    <path d="M 171.00 885.23 L 148.00 885.49 L 146.19 885.00 L 145.88 884.00 L 277.23 500.00 L 327.20 351.00 L 324.00 350.55 L 319.00 351.77 L 86.00 417.42 L 84.63 416.00 L 85.77 412.00 L 139.00 285.69 L 142.00 283.78 L 149.00 281.77 L 444.00 200.77 L 767.00 113.77 L 835.00 95.77 L 840.76 95.00 L 841.07 96.00 L 835.24 105.00 L 736.00 244.02 L 612.00 277.77 L 581.00 288.77 L 556.00 300.76 L 531.66 316.00 L 509.00 334.53 L 493.53 351.00 L 481.76 366.00 L 467.76 388.00 L 450.77 423.00 L 395.77 572.00 L 329.23 759.00 L 319.20 782.00 L 306.24 805.00 L 291.47 825.00 L 279.00 838.47 L 264.34 851.00 L 244.00 864.24 L 232.00 870.23 L 214.00 877.23 L 193.00 882.45 L 171.00 885.23 Z" fill="url(#tc-red)" fill-rule="evenodd"/>
    <path d="M 651.00 885.23 L 607.00 885.45 L 604.00 884.55 L 586.00 883.45 L 563.00 879.45 L 542.00 874.23 L 518.00 866.23 L 501.00 859.23 L 479.00 848.24 L 467.00 841.24 L 444.66 826.00 L 420.00 805.50 L 401.53 787.00 L 387.00 769.34 L 373.76 751.00 L 363.60 733.00 L 400.77 626.00 L 465.77 452.00 L 483.76 412.00 L 496.76 390.00 L 507.00 375.66 L 520.50 360.00 L 540.66 342.00 L 561.00 327.76 L 592.00 311.77 L 607.00 305.77 L 639.00 295.77 L 682.00 285.55 L 702.00 281.55 L 710.00 281.55 L 743.00 291.77 L 760.00 298.77 L 784.00 310.76 L 799.00 319.76 L 816.34 332.00 L 834.00 346.53 L 861.47 375.00 L 862.66 377.00 L 862.41 379.00 L 777.00 462.12 L 773.00 459.49 L 765.47 450.00 L 751.00 435.53 L 731.00 419.76 L 718.00 411.76 L 700.00 402.77 L 677.00 394.77 L 650.00 389.55 L 634.00 388.50 L 615.00 389.55 L 588.00 394.77 L 563.00 403.77 L 539.00 416.76 L 524.00 427.53 L 501.53 449.00 L 489.76 464.00 L 476.76 485.00 L 464.77 512.00 L 457.55 538.00 L 454.55 560.00 L 454.55 587.00 L 458.55 615.00 L 465.77 640.00 L 475.80 663.00 L 487.76 683.00 L 503.00 702.49 L 517.00 716.47 L 528.66 726.00 L 553.00 741.27 L 568.00 748.23 L 585.00 754.23 L 609.00 759.45 L 619.00 760.50 L 649.00 760.45 L 673.00 756.23 L 687.00 752.22 L 702.00 746.23 L 716.00 739.24 L 732.00 729.24 L 754.49 711.00 L 777.00 685.63 L 779.00 686.53 L 801.51 709.00 L 805.49 712.00 L 862.23 768.00 L 862.83 770.00 L 861.24 773.00 L 851.47 785.00 L 826.00 811.47 L 800.00 832.24 L 782.00 844.24 L 768.00 852.24 L 745.00 863.23 L 714.00 874.23 L 683.00 881.45 L 651.00 885.23 Z" fill="url(#tc-gray)" fill-rule="evenodd"/>
    <path d="M 655.00 704.23 L 630.00 704.45 L 609.00 700.23 L 597.00 696.23 L 584.00 690.24 L 571.00 682.24 L 562.00 675.47 L 552.50 667.00 L 544.53 658.00 L 537.76 649.00 L 529.76 636.00 L 523.77 623.00 L 519.77 611.00 L 515.55 591.00 L 514.55 569.00 L 515.45 566.00 L 515.55 558.00 L 518.77 542.00 L 527.73 518.00 L 536.76 502.00 L 542.00 494.66 L 560.00 475.53 L 570.00 467.76 L 584.00 458.76 L 597.00 452.77 L 612.00 447.77 L 629.00 444.55 L 655.00 444.50 L 664.00 445.55 L 681.00 449.77 L 697.00 455.77 L 713.00 464.76 L 726.00 474.53 L 741.47 490.00 L 749.06 501.00 L 747.00 500.34 L 736.34 491.00 L 725.00 483.76 L 706.00 475.77 L 692.00 472.55 L 680.00 471.50 L 665.00 472.55 L 655.00 474.55 L 644.00 477.77 L 631.00 483.76 L 624.00 487.76 L 610.00 498.53 L 603.53 505.00 L 595.76 515.00 L 584.77 535.00 L 579.77 551.00 L 577.50 565.00 L 577.55 583.00 L 579.55 596.00 L 581.77 604.00 L 587.73 619.00 L 596.00 633.34 L 608.00 647.50 L 620.00 657.24 L 638.00 667.27 L 651.00 672.23 L 666.00 675.45 L 691.00 675.45 L 706.00 672.23 L 717.00 668.27 L 734.00 659.24 L 748.00 647.66 L 749.95 647.00 L 745.46 654.00 L 729.49 671.00 L 712.00 684.24 L 702.00 690.24 L 686.00 697.23 L 668.00 702.23 L 655.00 704.23 Z M 788.00 629.30 L 787.00 629.30 L 786.56 628.00 L 786.00 588.73 L 779.00 585.77 L 751.00 577.23 L 748.00 576.04 L 747.71 575.00 L 786.00 561.94 L 787.00 520.70 L 789.00 521.68 L 808.00 548.34 L 812.00 552.65 L 816.00 552.23 L 850.00 540.93 L 851.03 542.00 L 829.13 575.00 L 832.76 582.00 L 848.24 603.00 L 850.80 608.00 L 847.00 608.23 L 816.00 597.77 L 812.00 597.81 L 788.00 629.30 Z" fill="url(#tc-red)" fill-rule="evenodd"/>
  </symbol>
  <use href="#turkcad-logo"/>
</svg>
